HIERARCHY
ROOT Hips
{
  OFFSET 5.72205e-005 65.662 3.42586
  CHANNELS 6 Xposition Yposition Zposition Zrotation Xrotation Yrotation
  JOINT Chest
  {
    OFFSET 0 8.7983 -4.7612
    CHANNELS 3 Zrotation Xrotation Yrotation
    JOINT Chest2
    {
      OFFSET 0 8.0291 0.4195
      CHANNELS 3 Zrotation Xrotation Yrotation
      JOINT Chest3
      {
        OFFSET 0 9.9351 -2.2114
        CHANNELS 3 Zrotation Xrotation Yrotation
        JOINT Neck
        {
          OFFSET 0 22.3885 -0.4656
          CHANNELS 3 Zrotation Xrotation Yrotation
          JOINT Head
          {
            OFFSET -0.0001 12.643 3.4389
            CHANNELS 3 Zrotation Xrotation Yrotation
            End Site
            {
              OFFSET 0.0001 17.6655 0.5274
            }
          }
        }
        JOINT LeftCollar
        {
          OFFSET 2.2603 21.606 7.4023
          CHANNELS 3 Zrotation Xrotation Yrotation
          JOINT LeftShoulder
          {
            OFFSET 13.5163 -1.1332 -5.0146
            CHANNELS 3 Zrotation Xrotation Yrotation
            JOINT LeftElbow
            {
              OFFSET -0.0995 -28.05 -0.2431
              CHANNELS 3 Zrotation Xrotation Yrotation
              JOINT LeftWrist
              {
                OFFSET 0.0679 -23.3996 -0.1402
                CHANNELS 3 Zrotation Xrotation Yrotation
                JOINT LeftFinger1
                {
                  OFFSET 0.7932 -9.069 2.5189
                  CHANNELS 3 Zrotation Xrotation Yrotation
                  JOINT LeftFinger11
                  {
                    OFFSET -0.8272 -3.3923 0.5977
                    CHANNELS 3 Zrotation Xrotation Yrotation
                    JOINT LeftFinger12
                    {
                      OFFSET -0.5649 -2.3158 0.4082
                      CHANNELS 3 Zrotation Xrotation Yrotation
                      End Site
                      {
                        OFFSET -0.4919 -1.6479 0.2673
                      }
                    }
                  }
                }
                JOINT LeftFinger2
                {
                  OFFSET 0.9159 -9.2044 0.2193
                  CHANNELS 3 Zrotation Xrotation Yrotation
                  JOINT LeftFinger21
                  {
                    OFFSET 0.0117 -4.1944 -0.0248
                    CHANNELS 3 Zrotation Xrotation Yrotation
                    JOINT LeftFinger22
                    {
                      OFFSET 0.0071 -2.3249 -0.0142
                      CHANNELS 3 Zrotation Xrotation Yrotation
                      End Site
                      {
                        OFFSET -0.1475 -2.0882 0.0028
                      }
                    }
                  }
                }
                JOINT LeftFinger3
                {
                  OFFSET 0.6113 -8.7231 -2.0637
                  CHANNELS 3 Zrotation Xrotation Yrotation
                  JOINT LeftFinger31
                  {
                    OFFSET -0.1927 -3.8059 -0.2383
                    CHANNELS 3 Zrotation Xrotation Yrotation
                    JOINT LeftFinger32
                    {
                      OFFSET -0.1091 -2.1688 -0.1362
                      CHANNELS 3 Zrotation Xrotation Yrotation
                      End Site
                      {
                        OFFSET -0.2358 -1.9176 -0.0906
                      }
                    }
                  }
                }
                JOINT LeftFinger4
                {
                  OFFSET -0.6151 -8.0947 -3.5641
                  CHANNELS 3 Zrotation Xrotation Yrotation
                  JOINT LeftFinger41
                  {
                    OFFSET -0.4882 -2.341 -0.6462
                    CHANNELS 3 Zrotation Xrotation Yrotation
                    JOINT LeftFinger42
                    {
                      OFFSET -0.3575 -1.7167 -0.4742
                      CHANNELS 3 Zrotation Xrotation Yrotation
                      End Site
                      {
                        OFFSET -0.4187 -1.5237 -0.3496
                      }
                    }
                  }
                }
                JOINT LeftFinger0
                {
                  OFFSET -1.42 -1.8761 1.4223
                  CHANNELS 3 Zrotation Xrotation Yrotation
                  JOINT LeftFinger01
                  {
                    OFFSET -1.1471 -3.4929 2.6334
                    CHANNELS 3 Zrotation Xrotation Yrotation
                    JOINT LeftFinger02
                    {
                      OFFSET -0.823 -2.3 1.6571
                      CHANNELS 3 Zrotation Xrotation Yrotation
                      End Site
                      {
                        OFFSET -0.5822 -1.6914 1.1582
                      }
                    }
                  }
                }
              }
            }
          }
        }
        JOINT RightCollar
        {
          OFFSET -2.2603 21.606 7.4023
          CHANNELS 3 Zrotation Xrotation Yrotation
          JOINT RightShoulder
          {
            OFFSET -13.5187 -1.1334 -5.0155
            CHANNELS 3 Zrotation Xrotation Yrotation
            JOINT RightElbow
            {
              OFFSET 0.0994 -28.0499 -0.2431
              CHANNELS 3 Zrotation Xrotation Yrotation
              JOINT RightWrist
              {
                OFFSET -0.0679 -23.3996 -0.1402
                CHANNELS 3 Zrotation Xrotation Yrotation
                JOINT RightFinger1
                {
                  OFFSET -0.7932 -9.0691 2.5189
                  CHANNELS 3 Zrotation Xrotation Yrotation
                  JOINT RightFinger11
                  {
                    OFFSET 0.8272 -3.3923 0.5977
                    CHANNELS 3 Zrotation Xrotation Yrotation
                    JOINT RightFinger12
                    {
                      OFFSET 0.565 -2.3158 0.4082
                      CHANNELS 3 Zrotation Xrotation Yrotation
                      End Site
                      {
                        OFFSET 0.4919 -1.6479 0.2673
                      }
                    }
                  }
                }
                JOINT RightFinger2
                {
                  OFFSET -0.916 -9.2044 0.2193
                  CHANNELS 3 Zrotation Xrotation Yrotation
                  JOINT RightFinger21
                  {
                    OFFSET -0.0117 -4.1944 -0.0248
                    CHANNELS 3 Zrotation Xrotation Yrotation
                    JOINT RightFinger22
                    {
                      OFFSET -0.0071 -2.3249 -0.0142
                      CHANNELS 3 Zrotation Xrotation Yrotation
                      End Site
                      {
                        OFFSET 0.1475 -2.0882 0.0028
                      }
                    }
                  }
                }
                JOINT RightFinger3
                {
                  OFFSET -0.6113 -8.7231 -2.0637
                  CHANNELS 3 Zrotation Xrotation Yrotation
                  JOINT RightFinger31
                  {
                    OFFSET 0.1927 -3.8059 -0.2383
                    CHANNELS 3 Zrotation Xrotation Yrotation
                    JOINT RightFinger32
                    {
                      OFFSET 0.1091 -2.1688 -0.1362
                      CHANNELS 3 Zrotation Xrotation Yrotation
                      End Site
                      {
                        OFFSET 0.2358 -1.9176 -0.0906
                      }
                    }
                  }
                }
                JOINT RightFinger4
                {
                  OFFSET 0.6151 -8.0947 -3.564
                  CHANNELS 3 Zrotation Xrotation Yrotation
                  JOINT RightFinger41
                  {
                    OFFSET 0.4882 -2.341 -0.6462
                    CHANNELS 3 Zrotation Xrotation Yrotation
                    JOINT RightFinger42
                    {
                      OFFSET 0.3574 -1.7166 -0.4742
                      CHANNELS 3 Zrotation Xrotation Yrotation
                      End Site
                      {
                        OFFSET 0.4187 -1.5237 -0.3496
                      }
                    }
                  }
                }
                JOINT RightFinger0
                {
                  OFFSET 1.4199 -1.8761 1.4221
                  CHANNELS 3 Zrotation Xrotation Yrotation
                  JOINT RightFinger01
                  {
                    OFFSET 1.1472 -3.4929 2.6336
                    CHANNELS 3 Zrotation Xrotation Yrotation
                    JOINT RightFinger02
                    {
                      OFFSET 0.8229 -2.3 1.6571
                      CHANNELS 3 Zrotation Xrotation Yrotation
                      End Site
                      {
                        OFFSET 0.5822 -1.6914 1.1582
                      }
                    }
                  }
                }
              }
            }
          }
        }
      }
    }
  }
  JOINT RightHip
  {
    OFFSET -9.412 3.9771 -0.7758
    CHANNELS 3 Zrotation Xrotation Yrotation
    JOINT RightKnee
    {
      OFFSET -0.7531 -40.938 0
      CHANNELS 3 Zrotation Xrotation Yrotation
      JOINT RightAnkle
      {
        OFFSET 0 -40.1986 0
        CHANNELS 3 Zrotation Xrotation Yrotation
        JOINT RightToe
        {
          OFFSET 0 -4.4182 9.239
          CHANNELS 3 Zrotation Xrotation Yrotation
          End Site
          {
            OFFSET 0 0 6.1981
          }
        }
      }
    }
  }
  JOINT LeftHip
  {
    OFFSET 9.4119 3.9773 -0.7758
    CHANNELS 3 Zrotation Xrotation Yrotation
    JOINT LeftKnee
    {
      OFFSET 0.7532 -40.9383 0
      CHANNELS 3 Zrotation Xrotation Yrotation
      JOINT LeftAnkle
      {
        OFFSET 0 -40.1986 0
        CHANNELS 3 Zrotation Xrotation Yrotation
        JOINT LeftToe
        {
          OFFSET 0 -4.4182 9.239
          CHANNELS 3 Zrotation Xrotation Yrotation
          End Site
          {
            OFFSET 0 0 6.1981
          }
        }
      }
    }
  }
}
MOTION
Frames:	5
Frame Time:	0.0333333
5.72205e-005 65.662 3.42586 0 0 -0 0 0 -0 0 0 -0 0 0 -0 0 0 -0 0 0 -0 0 0 -12.5014 88.1196 14.2451 10.6914 -0.00160068 -0.00239207 0.000740045 -8.4365e-005 7.00714e-005 -9.52055e-007 9.93923e-017 -1.98785e-016 -1.59028e-015 9.93923e-017 -5.96354e-016 -1.59028e-015 -9.93923e-017 -5.96354e-016 -1.59028e-015 9.93923e-017 -1.98785e-016 -1.59028e-015 -0.0128176 0.00232552 8.52707e-005 9.93923e-017 5.96354e-016 -0 9.93923e-017 -1.98785e-016 -1.59028e-015 -0.0160551 0.00299681 0.000857156 -2.48481e-016 0 3.18055e-015 9.93923e-017 -1.98785e-016 -1.59028e-015 -0.0125865 0.0031206 0.00282719 0 1.98785e-016 -0 9.93923e-017 -1.98785e-016 -1.59028e-015 9.93923e-017 -5.96354e-016 -1.59028e-015 -9.93923e-017 -5.96354e-016 -1.59028e-015 -0.865644 0.16582 7.03859 -88.0329 10.2057 -10.5567 0.0015593 -0.00248883 -0.000788628 7.87605e-005 4.10553e-005 1.24965e-005 -3.97569e-016 -7.95139e-016 3.18055e-015 -1.98785e-016 -3.97569e-016 3.18055e-015 -1.98785e-016 0 3.18055e-015 -3.97569e-016 -7.95139e-016 3.18055e-015 0.0129473 0.00231697 -8.70038e-005 9.93923e-017 -7.95139e-016 1.59028e-015 -3.97569e-016 -7.95139e-016 3.18055e-015 0.0163314 0.00303369 -0.000872333 3.97569e-016 7.95139e-016 -3.18055e-015 -3.97569e-016 -7.95139e-016 3.18055e-015 0.0145763 0.00367772 -0.00326275 9.93923e-017 -3.97569e-016 -0 -3.97569e-016 -7.95139e-016 3.18055e-015 -1.98785e-016 -3.97569e-016 3.18055e-015 -1.98785e-016 0 3.18055e-015 3.42482 1.32465 -0.0626183 0.000117508 0.717283 0.000978199 -3.4257 -2.04197 -0.0604716 6.47761e-025 0 -0 -3.42483 1.34017 0.0627307 -0.000193936 0.682302 -0.0013703 3.42574 -2.02253 0.0595886 -8.45714e-024 0 -7.40531e-025 
2.59231 -8.52924 -53.7484 -0.00683346 -63.0021 43.9937 1.80228 12.9287 3.1926 2.95838 25.9351 6.20232 2.95837 25.935 6.2023 -0.000112901 -0.000738736 -0.000199545 -0.00231989 -6.00064 29.9972 -0.000108659 -0.000740029 -12.5016 74.6403 -4.62128 -10.6149 -29.3579 -66.5238 -2.36929 38.994 -28.7178 62.017 -1.83082e-006 5.9852e-007 1.69736e-006 6.51806e-006 -4.28147e-006 6.72886e-006 -2.84815e-007 -1.08722e-005 2.65154e-006 -1.83082e-006 5.9852e-007 1.69736e-006 -0.0128038 0.00231279 8.24194e-005 6.51544e-006 5.90346e-006 6.72914e-006 -1.83082e-006 5.9852e-007 1.69736e-006 -0.0160476 0.00299343 0.000859397 5.10606e-006 -2.00587e-006 -2.58464e-006 -1.83082e-006 5.9852e-007 1.69736e-006 -0.0126534 0.0031379 0.0028416 -4.19191e-007 -1.4989e-006 1.10113e-005 -1.83082e-006 5.9852e-007 1.69736e-006 6.51806e-006 -4.28147e-006 6.72886e-006 -2.84815e-007 -1.08722e-005 2.65154e-006 -0.865763 0.165091 7.03839 -4.03918 -4.4204 -10.1068 35.2044 -71.5168 27.3726 37.4005 6.88421 -0.148391 2.37722e-006 -2.77976e-006 2.31831e-007 -1.59028e-015 9.93923e-016 -2.38542e-015 1.32503e-006 -2.57667e-006 -1.07618e-006 2.37722e-006 -2.77976e-006 2.31831e-007 0.0129284 0.00229558 -8.01266e-005 -2.7287e-007 9.88058e-006 2.38418e-006 2.37722e-006 -2.77976e-006 2.31831e-007 0.0163287 0.00299919 -0.00085442 -1.55058e-006 -1.25543e-005 9.10456e-006 2.37722e-006 -2.77976e-006 2.31831e-007 0.0146026 0.00367616 -0.00327278 6.17412e-006 -3.63086e-005 1.0676e-005 2.37722e-006 -2.77976e-006 2.31831e-007 -1.59028e-015 9.93923e-016 -2.38542e-015 1.32503e-006 -2.57667e-006 -1.07618e-006 -25.4908 -9.50479 -29.4388 0.00268755 8.80894 -0.45563 -3.04671 18.3487 0.18791 2.54172e-006 1.02754e-005 -1.60289e-006 47.3007 -48.9937 87.3632 -0.0667451 77.7536 1.65461 1.76638 9.05162 1.06524 7.95139e-016 -3.18055e-015 -0 
2.59259 -8.52962 -53.7485 -0.00683346 -63.0021 43.9937 1.80228 12.9287 3.1926 2.95838 25.9351 6.20232 2.95838 25.935 6.20229 -0.000116499 -0.000723766 -0.000192973 -0.00216405 -6.42903 29.9972 -0.000111584 -0.000725689 -12.5016 74.6403 -4.6213 -10.6149 -29.3578 -66.5237 -2.36929 38.994 -28.7178 62.017 6.45631e-007 -1.62936e-006 -2.44907e-006 -7.59983e-008 -2.86977e-006 -2.854e-006 4.25044e-006 -8.27485e-006 5.36975e-006 6.45631e-007 -1.62936e-006 -2.44907e-006 -0.0127684 0.00230101 8.66971e-005 3.18055e-015 0 -0 6.45631e-007 -1.62936e-006 -2.44907e-006 -0.0160137 0.0029863 0.000865575 -1.52747e-007 -4.21485e-006 -5.70796e-006 6.45631e-007 -1.62936e-006 -2.44907e-006 -0.0125927 0.00312316 0.00282725 -2.47667e-006 -6.07291e-006 4.14629e-006 6.45631e-007 -1.62936e-006 -2.44907e-006 -7.59983e-008 -2.86977e-006 -2.854e-006 4.25044e-006 -8.27485e-006 5.36975e-006 -0.865756 0.1651 7.03839 -4.03919 -4.4204 -10.1068 38.2561 -72.6785 30.3045 37.4006 6.88411 -0.14832 2.09491e-006 -8.37695e-006 5.53247e-006 1.59078e-006 2.12078e-005 -6.44442e-006 1.59028e-015 -3.37934e-015 -0 2.09491e-006 -8.37695e-006 5.53247e-006 0.0129712 0.00233085 -9.28601e-005 2.38246e-006 3.45595e-006 1.89893e-007 2.09491e-006 -8.37695e-006 5.53247e-006 0.0163519 0.0030456 -0.000878003 5.06017e-006 1.90254e-005 1.91623e-007 2.09491e-006 -8.37695e-006 5.53247e-006 0.0145805 0.00368531 -0.00327054 3.22764e-006 -1.9619e-005 -1.27967e-006 2.09491e-006 -8.37695e-006 5.53247e-006 1.59078e-006 2.12078e-005 -6.44442e-006 1.59028e-015 -3.37934e-015 -0 -25.464 -9.50666 -29.4357 0.00245267 8.78357 -0.885592 -3.05074 18.34 0.187444 5.83819e-006 -8.96872e-007 3.23521e-006 47.2621 -49.0003 87.3221 -0.0403562 77.7417 1.28966 1.78821 9.05757 1.05948 1.97927e-008 -1.53211e-006 -4.028e-006 
2.59287 -8.53001 -53.7485 -0.00685235 -63.0021 43.9937 1.80227 12.9287 3.1926 2.95838 25.9351 6.20229 2.95837 25.935 6.2023 -0.000109517 -0.000746787 -0.000206304 -0.00204553 -6.85748 29.9972 -0.000125431 -0.00073718 -12.5016 74.6404 -4.62128 -10.6148 -29.3579 -66.5238 -2.36935 38.994 -28.7178 62.017 -2.62844e-006 -1.0726e-006 -1.56157e-006 -3.18055e-015 -6.36111e-015 -3.18055e-015 -9.54166e-015 -9.54166e-015 -3.18055e-015 -2.62844e-006 -1.0726e-006 -1.56157e-006 -0.012835 0.00231795 9.18833e-005 7.16339e-006 -6.76302e-006 4.28008e-006 -2.62844e-006 -1.0726e-006 -1.56157e-006 -0.0160367 0.00299983 0.00085179 6.36111e-015 0 -4.77083e-015 -2.62844e-006 -1.0726e-006 -1.56157e-006 -0.0126625 0.00313284 0.00283618 8.82781e-032 3.18055e-015 -1.59028e-015 -2.62844e-006 -1.0726e-006 -1.56157e-006 -3.18055e-015 -6.36111e-015 -3.18055e-015 -9.54166e-015 -9.54166e-015 -3.18055e-015 -0.865758 0.16508 7.03838 -4.03924 -4.42044 -10.1068 41.7313 -73.7893 33.6599 37.4006 6.884 -0.148245 3.18055e-015 -1.97791e-014 7.95139e-016 1.59028e-015 -1.61016e-014 -0 1.59028e-015 -6.4605e-015 7.95139e-016 3.18055e-015 -1.97791e-014 7.95139e-016 0.0129122 0.00233444 -8.54903e-005 1.59028e-015 5.56597e-015 -0 3.18055e-015 -1.97791e-014 7.95139e-016 0.0163189 0.00303731 -0.000882738 1.28113e-006 3.40911e-006 -1.12661e-006 3.18055e-015 -1.97791e-014 7.95139e-016 0.0146007 0.00369364 -0.00327921 1.0483e-031 7.55382e-015 -7.95139e-016 3.18055e-015 -1.97791e-014 7.95139e-016 1.59028e-015 -1.61016e-014 -0 1.59028e-015 -6.4605e-015 7.95139e-016 -25.4372 -9.50838 -29.4326 0.00221843 8.75775 -1.31556 -3.05472 18.3315 0.186983 1.59028e-015 -9.54166e-015 -0 47.2817 -48.9728 87.3243 -0.053044 77.7661 0.928009 1.81009 9.06373 1.05373 -0 0 4.96962e-017 
2.59315 -8.53038 -53.7485 -0.00683346 -63.0021 43.9937 1.80228 12.9287 3.1926 2.95838 25.9351 6.20232 2.95837 25.935 6.2023 -0.000112901 -0.000738736 -0.000199545 -0.00188784 -7.286 29.9971 -0.000108659 -0.000740029 -12.5016 74.6403 -4.62128 -10.6149 -29.3579 -66.5238 -2.36929 38.994 -28.7178 62.017 2.47645e-006 -1.58566e-006 -4.14643e-006 -4.00327e-006 -6.52094e-006 1.72598e-005 7.98807e-006 -8.66266e-006 4.82904e-006 2.47645e-006 -1.58566e-006 -4.14643e-006 -0.0128086 0.00230663 9.64195e-005 1.23455e-005 4.02883e-006 4.54943e-006 2.47645e-006 -1.58566e-006 -4.14643e-006 -0.0160396 0.00299221 0.000869789 3.18055e-015 -3.18055e-015 -0 2.47645e-006 -1.58566e-006 -4.14643e-006 -0.0126575 0.00312972 0.00285601 1.09733e-005 -4.47783e-006 6.59451e-006 2.47645e-006 -1.58566e-006 -4.14643e-006 -4.00327e-006 -6.52094e-006 1.72598e-005 7.98807e-006 -8.66266e-006 4.82904e-006 -0.865763 0.165091 7.03839 -4.03925 -4.42044 -10.1068 45.6967 -74.837 37.5057 37.4006 6.88397 -0.14818 3.19521e-006 -1.31148e-005 -1.28465e-006 2.39013e-006 -2.45035e-006 1.0476e-007 -1.59028e-015 -1.68967e-015 -7.95139e-016 3.19521e-006 -1.31148e-005 -1.28465e-006 0.0128956 0.0022982 -8.51666e-005 1.58429e-006 1.4302e-005 1.49424e-006 3.19521e-006 -1.31148e-005 -1.28465e-006 0.0162811 0.00302359 -0.000865453 2.39022e-006 -1.52388e-006 1.04881e-007 3.19521e-006 -1.31148e-005 -1.28465e-006 0.0145377 0.00365362 -0.00323531 -7.47022e-006 2.39645e-005 -8.55171e-006 3.19521e-006 -1.31148e-005 -1.28465e-006 2.39013e-006 -2.45035e-006 1.0476e-007 -1.59028e-015 -1.68967e-015 -7.95139e-016 -25.4103 -9.50996 -29.4294 0.00192617 8.73125 -1.74562 -3.05872 18.3233 0.18653 -6.44141e-008 -7.06089e-007 1.87525e-006 47.2965 -48.948 87.323 -0.0627217 77.7875 0.56617 1.83203 9.07014 1.04796 -5.51738e-033 -3.18055e-015 -9.93923e-017 
